<svg xmlns="http://www.w3.org/2000/svg" width="23" height="23" viewBox="0 0 23 23"><g><g><path fill="#fff" d="M23 11.502c0 1.588.016 3.162-.076 4.747-.089 1.84-.505 3.472-1.851 4.822-1.343 1.346-2.973 1.766-4.81 1.855-1.582.09-3.152.074-4.737.074-1.58 0-3.151.015-4.735-.074-1.837-.089-3.465-.506-4.81-1.855C.638 19.724.218 18.09.13 16.249c-.09-1.585-.076-3.162-.076-4.747 0-1.586-.014-3.159.076-4.748.088-1.84.505-3.472 1.85-4.82C3.324.585 4.955.165 6.79.076c1.583-.09 3.152-.074 4.736-.074 1.582 0 3.152-.015 4.737.074 1.837.09 3.464.506 4.81 1.856 1.343 1.346 1.762 2.98 1.85 4.821.09 1.586.076 3.16.076 4.748zm-5.59 0c0-3.266-2.629-5.9-5.886-5.9a5.885 5.885 0 0 0-5.887 5.9c0 3.265 2.63 5.9 5.887 5.9a5.885 5.885 0 0 0 5.887-5.9zm-2.06 0a3.838 3.838 0 0 1-3.826 3.835 3.839 3.839 0 0 1-3.826-3.835 3.839 3.839 0 0 1 3.826-3.836 3.839 3.839 0 0 1 3.826 3.836zm2.302-4.764a1.367 1.367 0 0 0 .972-.403 1.376 1.376 0 0 0 .402-.976 1.374 1.374 0 1 0-2.749 0c0 .763.614 1.379 1.375 1.379z"/></g></g></svg>